<?xml version="1.0" encoding="UTF-8"?>
<svg xmlns="http://www.w3.org/2000/svg" xmlns:xlink="http://www.w3.org/1999/xlink" viewBox="0 0 48 48" width="48px" height="48px">
<g id="surface9036696">
<path style=" stroke:none;fill-rule:nonzero;fill:rgb(60.000002%,60.000002%,60.000002%);fill-opacity:1;" d="M 24 4 C 12.96875 4 4 12.96875 4 24 C 4 27.191406 4.769531 30.339844 6.230469 33.171875 L 4.089844 40.828125 C 3.851562 41.699219 4.101562 42.628906 4.730469 43.269531 C 5.210938 43.738281 5.851562 44 6.5 44 C 6.730469 44 6.949219 43.96875 7.171875 43.910156 L 14.828125 41.769531 C 17.660156 43.230469 20.820312 44 24 44 C 35.03125 44 44 35.03125 44 24 C 44 12.96875 35.03125 4 24 4 Z M 34.359375 31.371094 C 33.921875 32.601562 31.761719 33.789062 30.789062 33.878906 C 29.820312 33.96875 28.910156 34.320312 24.449219 32.558594 C 19.070312 30.441406 15.671875 24.929688 15.410156 24.570312 C 15.140625 24.21875 13.25 21.710938 13.25 19.101562 C 13.25 16.5 14.621094 15.21875 15.101562 14.691406 C 15.589844 14.160156 16.160156 14.03125 16.511719 14.03125 C 16.871094 14.03125 17.21875 14.03125 17.53125 14.039062 C 17.898438 14.058594 18.320312 14.078125 18.71875 14.960938 C 19.191406 16 20.21875 18.621094 20.351562 18.890625 C 20.480469 19.148438 20.570312 19.460938 20.390625 19.808594 C 20.21875 20.160156 20.128906 20.378906 19.859375 20.691406 C 19.601562 21 19.308594 21.378906 19.070312 21.621094 C 18.808594 21.878906 18.53125 22.171875 18.839844 22.699219 C 19.148438 23.230469 20.210938 24.960938 21.78125 26.359375 C 23.800781 28.160156 25.5 28.71875 26.03125 28.988281 C 26.558594 29.25 26.871094 29.210938 27.179688 28.851562 C 27.488281 28.5 28.5 27.308594 28.859375 26.78125 C 29.210938 26.25 29.558594 26.339844 30.050781 26.519531 C 30.53125 26.691406 33.128906 27.96875 33.660156 28.238281 C 34.191406 28.5 34.539062 28.628906 34.671875 28.851562 C 34.800781 29.070312 34.800781 30.128906 34.359375 31.371094 Z M 34.359375 31.371094 "/>
</g>
</svg>
